<?xml version="1.0" encoding="UTF-8" standalone="no"?>
<!DOCTYPE svg PUBLIC "-//W3C//DTD SVG 1.1//EN"
 "http://www.w3.org/Graphics/SVG/1.1/DTD/svg11.dtd">
<!-- Generated by graphviz version 2.38.0 (20140413.2041)
 -->
<!-- Title: controllers_diagram Pages: 1 -->
<svg width="1028pt" height="946pt"
 viewBox="0.00 0.00 1028.21 946.00" xmlns="http://www.w3.org/2000/svg" xmlns:xlink="http://www.w3.org/1999/xlink">
<g id="graph0" class="graph" transform="scale(1 1) rotate(0) translate(411.662 517.5)">
<title>controllers_diagram</title>
<polygon fill="none" stroke="none" points="-411.662,428.5 -411.662,-517.5 616.545,-517.5 616.545,428.5 -411.662,428.5"/>
<!-- _diagram_info -->
<g id="node1" class="node"><title>_diagram_info</title>
<text text-anchor="start" x="331.312" y="-127.1" font-family="Times,serif" font-size="13.00">Controllers diagram</text>
<text text-anchor="start" x="331.312" y="-114.1" font-family="Times,serif" font-size="13.00">Date: Sep 04 2016 &#45; 18:42</text>
<text text-anchor="start" x="331.312" y="-101.1" font-family="Times,serif" font-size="13.00">Migration version: 20160818210402</text>
<text text-anchor="start" x="331.312" y="-88.1" font-family="Times,serif" font-size="13.00">Generated by RailRoady 1.5.1</text>
<text text-anchor="start" x="331.312" y="-75.1" font-family="Times,serif" font-size="13.00">http://railroady.prestonlee.com</text>
</g>
<!-- AccountExecutives::ConfirmationsController -->
<g id="node2" class="node"><title>AccountExecutives::ConfirmationsController</title>
<path fill="none" stroke="black" d="M198.855,50C198.855,50 445.145,50 445.145,50 451.145,50 457.145,44 457.145,38 457.145,38 457.145,-30 457.145,-30 457.145,-36 451.145,-42 445.145,-42 445.145,-42 198.855,-42 198.855,-42 192.855,-42 186.855,-36 186.855,-30 186.855,-30 186.855,38 186.855,38 186.855,44 192.855,50 198.855,50"/>
<text text-anchor="middle" x="322" y="-26.8" font-family="Times,serif" font-size="14.00">AccountExecutives::ConfirmationsController</text>
<polyline fill="none" stroke="black" points="186.855,-20 457.145,-20 "/>
<polyline fill="none" stroke="black" points="186.855,4 457.145,4 "/>
<polyline fill="none" stroke="black" points="186.855,28 457.145,28 "/>
<text text-anchor="start" x="194.855" y="43.2" font-family="Times,serif" font-size="14.00">_layout</text>
</g>
<!-- AccountExecutives::OmniauthCallbacksController -->
<g id="node3" class="node"><title>AccountExecutives::OmniauthCallbacksController</title>
<path fill="none" stroke="black" d="M-140.687,50C-140.687,50 136.687,50 136.687,50 142.687,50 148.687,44 148.687,38 148.687,38 148.687,-30 148.687,-30 148.687,-36 142.687,-42 136.687,-42 136.687,-42 -140.687,-42 -140.687,-42 -146.687,-42 -152.687,-36 -152.687,-30 -152.687,-30 -152.687,38 -152.687,38 -152.687,44 -146.687,50 -140.687,50"/>
<text text-anchor="middle" x="-2" y="-26.8" font-family="Times,serif" font-size="14.00">AccountExecutives::OmniauthCallbacksController</text>
<polyline fill="none" stroke="black" points="-152.687,-20 148.687,-20 "/>
<polyline fill="none" stroke="black" points="-152.687,4 148.687,4 "/>
<polyline fill="none" stroke="black" points="-152.687,28 148.687,28 "/>
<text text-anchor="start" x="-144.687" y="43.2" font-family="Times,serif" font-size="14.00">_layout</text>
</g>
<!-- AccountExecutives::PasswordsController -->
<g id="node4" class="node"><title>AccountExecutives::PasswordsController</title>
<path fill="none" stroke="black" d="M-208.645,-222C-208.645,-222 16.645,-222 16.645,-222 22.645,-222 28.645,-228 28.645,-234 28.645,-234 28.645,-302 28.645,-302 28.645,-308 22.645,-314 16.645,-314 16.645,-314 -208.645,-314 -208.645,-314 -214.645,-314 -220.645,-308 -220.645,-302 -220.645,-302 -220.645,-234 -220.645,-234 -220.645,-228 -214.645,-222 -208.645,-222"/>
<text text-anchor="middle" x="-96" y="-298.8" font-family="Times,serif" font-size="14.00">AccountExecutives::PasswordsController</text>
<polyline fill="none" stroke="black" points="-220.645,-292 28.645,-292 "/>
<polyline fill="none" stroke="black" points="-220.645,-268 28.645,-268 "/>
<polyline fill="none" stroke="black" points="-220.645,-244 28.645,-244 "/>
<text text-anchor="start" x="-212.645" y="-228.8" font-family="Times,serif" font-size="14.00">_layout</text>
</g>
<!-- AccountExecutives::RegistrationsController -->
<g id="node5" class="node"><title>AccountExecutives::RegistrationsController</title>
<path fill="none" stroke="black" d="M11.9722,169C11.9722,169 252.028,169 252.028,169 258.028,169 264.028,163 264.028,157 264.028,157 264.028,89 264.028,89 264.028,83 258.028,77 252.028,77 252.028,77 11.9722,77 11.9722,77 5.97217,77 -0.027832,83 -0.027832,89 -0.027832,89 -0.027832,157 -0.027832,157 -0.027832,163 5.97217,169 11.9722,169"/>
<text text-anchor="middle" x="132" y="92.2" font-family="Times,serif" font-size="14.00">AccountExecutives::RegistrationsController</text>
<polyline fill="none" stroke="black" points="-0.027832,99 264.028,99 "/>
<polyline fill="none" stroke="black" points="-0.027832,123 264.028,123 "/>
<polyline fill="none" stroke="black" points="-0.027832,147 264.028,147 "/>
<text text-anchor="start" x="7.97217" y="162.2" font-family="Times,serif" font-size="14.00">_layout</text>
</g>
<!-- AccountExecutives::SessionsController -->
<g id="node6" class="node"><title>AccountExecutives::SessionsController</title>
<path fill="none" stroke="black" d="M249.796,-239C249.796,-239 464.204,-239 464.204,-239 470.204,-239 476.204,-245 476.204,-251 476.204,-251 476.204,-319 476.204,-319 476.204,-325 470.204,-331 464.204,-331 464.204,-331 249.796,-331 249.796,-331 243.796,-331 237.796,-325 237.796,-319 237.796,-319 237.796,-251 237.796,-251 237.796,-245 243.796,-239 249.796,-239"/>
<text text-anchor="middle" x="357" y="-315.8" font-family="Times,serif" font-size="14.00">AccountExecutives::SessionsController</text>
<polyline fill="none" stroke="black" points="237.796,-309 476.204,-309 "/>
<polyline fill="none" stroke="black" points="237.796,-285 476.204,-285 "/>
<polyline fill="none" stroke="black" points="237.796,-261 476.204,-261 "/>
<text text-anchor="start" x="245.796" y="-245.8" font-family="Times,serif" font-size="14.00">_layout</text>
</g>
<!-- Admins::ConfirmationsController -->
<g id="node7" class="node"><title>Admins::ConfirmationsController</title>
<path fill="none" stroke="black" d="M318.11,169C318.11,169 499.89,169 499.89,169 505.89,169 511.89,163 511.89,157 511.89,157 511.89,89 511.89,89 511.89,83 505.89,77 499.89,77 499.89,77 318.11,77 318.11,77 312.11,77 306.11,83 306.11,89 306.11,89 306.11,157 306.11,157 306.11,163 312.11,169 318.11,169"/>
<text text-anchor="middle" x="409" y="92.2" font-family="Times,serif" font-size="14.00">Admins::ConfirmationsController</text>
<polyline fill="none" stroke="black" points="306.11,99 511.89,99 "/>
<polyline fill="none" stroke="black" points="306.11,123 511.89,123 "/>
<polyline fill="none" stroke="black" points="306.11,147 511.89,147 "/>
<text text-anchor="start" x="314.11" y="162.2" font-family="Times,serif" font-size="14.00">_layout</text>
</g>
<!-- Admins::OmniauthCallbacksController -->
<g id="node8" class="node"><title>Admins::OmniauthCallbacksController</title>
<path fill="none" stroke="black" d="M-192.431,-103C-192.431,-103 20.4312,-103 20.4312,-103 26.4312,-103 32.4312,-109 32.4312,-115 32.4312,-115 32.4312,-183 32.4312,-183 32.4312,-189 26.4312,-195 20.4312,-195 20.4312,-195 -192.431,-195 -192.431,-195 -198.431,-195 -204.431,-189 -204.431,-183 -204.431,-183 -204.431,-115 -204.431,-115 -204.431,-109 -198.431,-103 -192.431,-103"/>
<text text-anchor="middle" x="-86" y="-179.8" font-family="Times,serif" font-size="14.00">Admins::OmniauthCallbacksController</text>
<polyline fill="none" stroke="black" points="-204.431,-173 32.4312,-173 "/>
<polyline fill="none" stroke="black" points="-204.431,-149 32.4312,-149 "/>
<polyline fill="none" stroke="black" points="-204.431,-125 32.4312,-125 "/>
<text text-anchor="start" x="-196.431" y="-109.8" font-family="Times,serif" font-size="14.00">_layout</text>
</g>
<!-- Admins::PasswordsController -->
<g id="node9" class="node"><title>Admins::PasswordsController</title>
<path fill="none" stroke="black" d="M-362.39,16C-362.39,16 -201.61,16 -201.61,16 -195.61,16 -189.61,10 -189.61,4 -189.61,4 -189.61,-64 -189.61,-64 -189.61,-70 -195.61,-76 -201.61,-76 -201.61,-76 -362.39,-76 -362.39,-76 -368.39,-76 -374.39,-70 -374.39,-64 -374.39,-64 -374.39,4 -374.39,4 -374.39,10 -368.39,16 -362.39,16"/>
<text text-anchor="middle" x="-282" y="-60.8" font-family="Times,serif" font-size="14.00">Admins::PasswordsController</text>
<polyline fill="none" stroke="black" points="-374.39,-54 -189.61,-54 "/>
<polyline fill="none" stroke="black" points="-374.39,-30 -189.61,-30 "/>
<polyline fill="none" stroke="black" points="-374.39,-6 -189.61,-6 "/>
<text text-anchor="start" x="-366.39" y="9.2" font-family="Times,serif" font-size="14.00">_layout</text>
</g>
<!-- Admins::RegistrationsController -->
<g id="node10" class="node"><title>Admins::RegistrationsController</title>
<path fill="none" stroke="black" d="M12.2275,-341C12.2275,-341 187.772,-341 187.772,-341 193.772,-341 199.772,-347 199.772,-353 199.772,-353 199.772,-421 199.772,-421 199.772,-427 193.772,-433 187.772,-433 187.772,-433 12.2275,-433 12.2275,-433 6.22754,-433 0.227539,-427 0.227539,-421 0.227539,-421 0.227539,-353 0.227539,-353 0.227539,-347 6.22754,-341 12.2275,-341"/>
<text text-anchor="middle" x="100" y="-417.8" font-family="Times,serif" font-size="14.00">Admins::RegistrationsController</text>
<polyline fill="none" stroke="black" points="0.227539,-411 199.772,-411 "/>
<polyline fill="none" stroke="black" points="0.227539,-387 199.772,-387 "/>
<polyline fill="none" stroke="black" points="0.227539,-363 199.772,-363 "/>
<text text-anchor="start" x="8.22754" y="-347.8" font-family="Times,serif" font-size="14.00">_layout</text>
</g>
<!-- Admins::SessionsController -->
<g id="node11" class="node"><title>Admins::SessionsController</title>
<path fill="none" stroke="black" d="M12.0518,407C12.0518,407 161.948,407 161.948,407 167.948,407 173.948,401 173.948,395 173.948,395 173.948,327 173.948,327 173.948,321 167.948,315 161.948,315 161.948,315 12.0518,315 12.0518,315 6.05176,315 0.0517578,321 0.0517578,327 0.0517578,327 0.0517578,395 0.0517578,395 0.0517578,401 6.05176,407 12.0518,407"/>
<text text-anchor="middle" x="87" y="330.2" font-family="Times,serif" font-size="14.00">Admins::SessionsController</text>
<polyline fill="none" stroke="black" points="0.0517578,337 173.948,337 "/>
<polyline fill="none" stroke="black" points="0.0517578,361 173.948,361 "/>
<polyline fill="none" stroke="black" points="0.0517578,385 173.948,385 "/>
<text text-anchor="start" x="8.05176" y="400.2" font-family="Times,serif" font-size="14.00">_layout</text>
</g>
<!-- ApplicationController -->
<g id="node12" class="node"><title>ApplicationController</title>
<path fill="none" stroke="black" d="M284.034,305C284.034,305 457.966,305 457.966,305 463.966,305 469.966,299 469.966,293 469.966,293 469.966,213 469.966,213 469.966,207 463.966,201 457.966,201 457.966,201 284.034,201 284.034,201 278.034,201 272.034,207 272.034,213 272.034,213 272.034,293 272.034,293 272.034,299 278.034,305 284.034,305"/>
<text text-anchor="middle" x="371" y="216.2" font-family="Times,serif" font-size="14.00">ApplicationController</text>
<polyline fill="none" stroke="black" points="272.034,223 469.966,223 "/>
<polyline fill="none" stroke="black" points="272.034,247 469.966,247 "/>
<text text-anchor="start" x="280.034" y="262.2" font-family="Times,serif" font-size="14.00">configure_permitted_parameters</text>
<text text-anchor="start" x="280.034" y="276.2" font-family="Times,serif" font-size="14.00">set_current_user</text>
<polyline fill="none" stroke="black" points="272.034,283 469.966,283 "/>
<text text-anchor="start" x="280.034" y="298.2" font-family="Times,serif" font-size="14.00">_layout</text>
</g>
<!-- Clients::ConfirmationsController -->
<g id="node13" class="node"><title>Clients::ConfirmationsController</title>
<path fill="none" stroke="black" d="M-327.555,339C-327.555,339 -150.445,339 -150.445,339 -144.445,339 -138.445,333 -138.445,327 -138.445,327 -138.445,259 -138.445,259 -138.445,253 -144.445,247 -150.445,247 -150.445,247 -327.555,247 -327.555,247 -333.555,247 -339.555,253 -339.555,259 -339.555,259 -339.555,327 -339.555,327 -339.555,333 -333.555,339 -327.555,339"/>
<text text-anchor="middle" x="-239" y="262.2" font-family="Times,serif" font-size="14.00">Clients::ConfirmationsController</text>
<polyline fill="none" stroke="black" points="-339.555,269 -138.445,269 "/>
<polyline fill="none" stroke="black" points="-339.555,293 -138.445,293 "/>
<polyline fill="none" stroke="black" points="-339.555,317 -138.445,317 "/>
<text text-anchor="start" x="-331.555" y="332.2" font-family="Times,serif" font-size="14.00">_layout</text>
</g>
<!-- Clients::OmniauthCallbacksController -->
<g id="node14" class="node"><title>Clients::OmniauthCallbacksController</title>
<path fill="none" stroke="black" d="M11.9033,288C11.9033,288 220.097,288 220.097,288 226.097,288 232.097,282 232.097,276 232.097,276 232.097,208 232.097,208 232.097,202 226.097,196 220.097,196 220.097,196 11.9033,196 11.9033,196 5.90332,196 -0.0966797,202 -0.0966797,208 -0.0966797,208 -0.0966797,276 -0.0966797,276 -0.0966797,282 5.90332,288 11.9033,288"/>
<text text-anchor="middle" x="116" y="211.2" font-family="Times,serif" font-size="14.00">Clients::OmniauthCallbacksController</text>
<polyline fill="none" stroke="black" points="-0.0966797,218 232.097,218 "/>
<polyline fill="none" stroke="black" points="-0.0966797,242 232.097,242 "/>
<polyline fill="none" stroke="black" points="-0.0966797,266 232.097,266 "/>
<text text-anchor="start" x="7.90332" y="281.2" font-family="Times,serif" font-size="14.00">_layout</text>
</g>
<!-- Clients::PasswordsController -->
<g id="node15" class="node"><title>Clients::PasswordsController</title>
<path fill="none" stroke="black" d="M215.945,424C215.945,424 372.055,424 372.055,424 378.055,424 384.055,418 384.055,412 384.055,412 384.055,344 384.055,344 384.055,338 378.055,332 372.055,332 372.055,332 215.945,332 215.945,332 209.945,332 203.945,338 203.945,344 203.945,344 203.945,412 203.945,412 203.945,418 209.945,424 215.945,424"/>
<text text-anchor="middle" x="294" y="347.2" font-family="Times,serif" font-size="14.00">Clients::PasswordsController</text>
<polyline fill="none" stroke="black" points="203.945,354 384.055,354 "/>
<polyline fill="none" stroke="black" points="203.945,378 384.055,378 "/>
<polyline fill="none" stroke="black" points="203.945,402 384.055,402 "/>
<text text-anchor="start" x="211.945" y="417.2" font-family="Times,serif" font-size="14.00">_layout</text>
</g>
<!-- Clients::RegistrationsController -->
<g id="node16" class="node"><title>Clients::RegistrationsController</title>
<path fill="none" stroke="black" d="M368.562,-358C368.562,-358 539.438,-358 539.438,-358 545.438,-358 551.438,-364 551.438,-370 551.438,-370 551.438,-438 551.438,-438 551.438,-444 545.438,-450 539.438,-450 539.438,-450 368.562,-450 368.562,-450 362.562,-450 356.562,-444 356.562,-438 356.562,-438 356.562,-370 356.562,-370 356.562,-364 362.562,-358 368.562,-358"/>
<text text-anchor="middle" x="454" y="-434.8" font-family="Times,serif" font-size="14.00">Clients::RegistrationsController</text>
<polyline fill="none" stroke="black" points="356.562,-428 551.438,-428 "/>
<polyline fill="none" stroke="black" points="356.562,-404 551.438,-404 "/>
<polyline fill="none" stroke="black" points="356.562,-380 551.438,-380 "/>
<text text-anchor="start" x="364.562" y="-364.8" font-family="Times,serif" font-size="14.00">_layout</text>
</g>
<!-- Clients::SessionsController -->
<g id="node17" class="node"><title>Clients::SessionsController</title>
<path fill="none" stroke="black" d="M-395.614,-103C-395.614,-103 -250.386,-103 -250.386,-103 -244.386,-103 -238.386,-109 -238.386,-115 -238.386,-115 -238.386,-183 -238.386,-183 -238.386,-189 -244.386,-195 -250.386,-195 -250.386,-195 -395.614,-195 -395.614,-195 -401.614,-195 -407.614,-189 -407.614,-183 -407.614,-183 -407.614,-115 -407.614,-115 -407.614,-109 -401.614,-103 -395.614,-103"/>
<text text-anchor="middle" x="-323" y="-179.8" font-family="Times,serif" font-size="14.00">Clients::SessionsController</text>
<polyline fill="none" stroke="black" points="-407.614,-173 -238.386,-173 "/>
<polyline fill="none" stroke="black" points="-407.614,-149 -238.386,-149 "/>
<polyline fill="none" stroke="black" points="-407.614,-125 -238.386,-125 "/>
<text text-anchor="start" x="-399.614" y="-109.8" font-family="Times,serif" font-size="14.00">_layout</text>
</g>
<!-- SocialProfilesController -->
<g id="node18" class="node"><title>SocialProfilesController</title>
<path fill="none" stroke="black" d="M-395.662,-409C-395.662,-409 -268.338,-409 -268.338,-409 -262.338,-409 -256.338,-415 -256.338,-421 -256.338,-421 -256.338,-501 -256.338,-501 -256.338,-507 -262.338,-513 -268.338,-513 -268.338,-513 -395.662,-513 -395.662,-513 -401.662,-513 -407.662,-507 -407.662,-501 -407.662,-501 -407.662,-421 -407.662,-421 -407.662,-415 -401.662,-409 -395.662,-409"/>
<text text-anchor="middle" x="-332" y="-497.8" font-family="Times,serif" font-size="14.00">SocialProfilesController</text>
<polyline fill="none" stroke="black" points="-407.662,-491 -256.338,-491 "/>
<text text-anchor="start" x="-399.662" y="-475.8" font-family="Times,serif" font-size="14.00">destroy</text>
<polyline fill="none" stroke="black" points="-407.662,-469 -256.338,-469 "/>
<polyline fill="none" stroke="black" points="-407.662,-445 -256.338,-445 "/>
<text text-anchor="start" x="-399.662" y="-429.8" font-family="Times,serif" font-size="14.00">_layout</text>
<text text-anchor="start" x="-399.662" y="-415.8" font-family="Times,serif" font-size="14.00">correct_user!</text>
</g>
<!-- StaticPagesController -->
<g id="node19" class="node"><title>StaticPagesController</title>
<path fill="none" stroke="black" d="M-379.045,-290C-379.045,-290 -264.955,-290 -264.955,-290 -258.955,-290 -252.955,-296 -252.955,-302 -252.955,-302 -252.955,-368 -252.955,-368 -252.955,-374 -258.955,-380 -264.955,-380 -264.955,-380 -379.045,-380 -379.045,-380 -385.045,-380 -391.045,-374 -391.045,-368 -391.045,-368 -391.045,-302 -391.045,-302 -391.045,-296 -385.045,-290 -379.045,-290"/>
<text text-anchor="middle" x="-322" y="-364.8" font-family="Times,serif" font-size="14.00">StaticPagesController</text>
<polyline fill="none" stroke="black" points="-391.045,-358 -252.955,-358 "/>
<text text-anchor="start" x="-383.045" y="-342.8" font-family="Times,serif" font-size="14.00">home</text>
<polyline fill="none" stroke="black" points="-391.045,-336 -252.955,-336 "/>
<polyline fill="none" stroke="black" points="-391.045,-312 -252.955,-312 "/>
<text text-anchor="start" x="-383.045" y="-296.8" font-family="Times,serif" font-size="14.00">_layout</text>
</g>
<!-- Users::ConfirmationsController -->
<g id="node20" class="node"><title>Users::ConfirmationsController</title>
<path fill="none" stroke="black" d="M-208.662,-341C-208.662,-341 -39.3379,-341 -39.3379,-341 -33.3379,-341 -27.3379,-347 -27.3379,-353 -27.3379,-353 -27.3379,-419 -27.3379,-419 -27.3379,-425 -33.3379,-431 -39.3379,-431 -39.3379,-431 -208.662,-431 -208.662,-431 -214.662,-431 -220.662,-425 -220.662,-419 -220.662,-419 -220.662,-353 -220.662,-353 -220.662,-347 -214.662,-341 -208.662,-341"/>
<text text-anchor="middle" x="-124" y="-415.8" font-family="Times,serif" font-size="14.00">Users::ConfirmationsController</text>
<polyline fill="none" stroke="black" points="-220.662,-409 -27.3379,-409 "/>
<text text-anchor="start" x="-212.662" y="-393.8" font-family="Times,serif" font-size="14.00">show</text>
<polyline fill="none" stroke="black" points="-220.662,-387 -27.3379,-387 "/>
<polyline fill="none" stroke="black" points="-220.662,-363 -27.3379,-363 "/>
<text text-anchor="start" x="-212.662" y="-347.8" font-family="Times,serif" font-size="14.00">_layout</text>
</g>
<!-- Users::OmniauthCallbacksController -->
<g id="node21" class="node"><title>Users::OmniauthCallbacksController</title>
<path fill="none" stroke="black" d="M79.7964,-69C79.7964,-69 280.204,-69 280.204,-69 286.204,-69 292.204,-75 292.204,-81 292.204,-81 292.204,-189 292.204,-189 292.204,-195 286.204,-201 280.204,-201 280.204,-201 79.7964,-201 79.7964,-201 73.7964,-201 67.7964,-195 67.7964,-189 67.7964,-189 67.7964,-81 67.7964,-81 67.7964,-75 73.7964,-69 79.7964,-69"/>
<text text-anchor="middle" x="180" y="-185.8" font-family="Times,serif" font-size="14.00">Users::OmniauthCallbacksController</text>
<polyline fill="none" stroke="black" points="67.7964,-179 292.204,-179 "/>
<text text-anchor="start" x="75.7964" y="-163.8" font-family="Times,serif" font-size="14.00">facebook</text>
<text text-anchor="start" x="75.7964" y="-149.8" font-family="Times,serif" font-size="14.00">google_oauth2</text>
<text text-anchor="start" x="75.7964" y="-135.8" font-family="Times,serif" font-size="14.00">twitter</text>
<polyline fill="none" stroke="black" points="67.7964,-129 292.204,-129 "/>
<polyline fill="none" stroke="black" points="67.7964,-105 292.204,-105 "/>
<text text-anchor="start" x="75.7964" y="-89.8" font-family="Times,serif" font-size="14.00">_layout</text>
<text text-anchor="start" x="75.7964" y="-75.8" font-family="Times,serif" font-size="14.00">omniauth_callback</text>
</g>
<!-- Users::RegistrationsController -->
<g id="node22" class="node"><title>Users::RegistrationsController</title>
<path fill="none" stroke="black" d="M437.455,424C437.455,424 600.545,424 600.545,424 606.545,424 612.545,418 612.545,412 612.545,412 612.545,346 612.545,346 612.545,340 606.545,334 600.545,334 600.545,334 437.455,334 437.455,334 431.455,334 425.455,340 425.455,346 425.455,346 425.455,412 425.455,412 425.455,418 431.455,424 437.455,424"/>
<text text-anchor="middle" x="519" y="349.2" font-family="Times,serif" font-size="14.00">Users::RegistrationsController</text>
<polyline fill="none" stroke="black" points="425.455,356 612.545,356 "/>
<polyline fill="none" stroke="black" points="425.455,380 612.545,380 "/>
<text text-anchor="start" x="433.455" y="395.2" font-family="Times,serif" font-size="14.00">update_resource</text>
<polyline fill="none" stroke="black" points="425.455,402 612.545,402 "/>
<text text-anchor="start" x="433.455" y="417.2" font-family="Times,serif" font-size="14.00">_layout</text>
</g>
<!-- UsersController -->
<g id="node23" class="node"><title>UsersController</title>
<path fill="none" stroke="black" d="M-208.655,220C-208.655,220 -39.3447,220 -39.3447,220 -33.3447,220 -27.3447,214 -27.3447,208 -27.3447,208 -27.3447,100 -27.3447,100 -27.3447,94 -33.3447,88 -39.3447,88 -39.3447,88 -208.655,88 -208.655,88 -214.655,88 -220.655,94 -220.655,100 -220.655,100 -220.655,208 -220.655,208 -220.655,214 -214.655,220 -208.655,220"/>
<text text-anchor="middle" x="-124" y="103.2" font-family="Times,serif" font-size="14.00">UsersController</text>
<polyline fill="none" stroke="black" points="-220.655,110 -27.3447,110 "/>
<text text-anchor="start" x="-212.655" y="125.2" font-family="Times,serif" font-size="14.00">finish_signup</text>
<polyline fill="none" stroke="black" points="-220.655,132 -27.3447,132 "/>
<polyline fill="none" stroke="black" points="-220.655,156 -27.3447,156 "/>
<text text-anchor="start" x="-212.655" y="171.2" font-family="Times,serif" font-size="14.00">_layout</text>
<text text-anchor="start" x="-212.655" y="185.2" font-family="Times,serif" font-size="14.00">email_already_taken?</text>
<text text-anchor="start" x="-212.655" y="199.2" font-family="Times,serif" font-size="14.00">signed_up_but_not_confirmed?</text>
<text text-anchor="start" x="-212.655" y="213.2" font-family="Times,serif" font-size="14.00">user_params</text>
</g>
</g>
</svg>
