<?xml version="1.0" encoding="UTF-8" standalone="no"?>
<!DOCTYPE svg PUBLIC "-//W3C//DTD SVG 1.1//EN"
 "http://www.w3.org/Graphics/SVG/1.1/DTD/svg11.dtd">
<!-- Generated by graphviz version 2.38.0 (20140413.2041)
 -->
<!-- Title: models_diagram Pages: 1 -->
<svg width="1883pt" height="554pt"
 viewBox="0.00 0.00 1883.46 554.00" xmlns="http://www.w3.org/2000/svg" xmlns:xlink="http://www.w3.org/1999/xlink">
<g id="graph0" class="graph" transform="scale(1 1) rotate(0) translate(4 550)">
<title>models_diagram</title>
<polygon fill="none" stroke="none" points="-4,4 -4,-550 1879.46,-550 1879.46,4 -4,4"/>
<!-- _diagram_info -->
<g id="node1" class="node"><title>_diagram_info</title>
<text text-anchor="start" x="8" y="-433.6" font-family="Times,serif" font-size="13.00">Models diagram</text>
<text text-anchor="start" x="8" y="-420.6" font-family="Times,serif" font-size="13.00">Date: Sep 04 2016 &#45; 18:42</text>
<text text-anchor="start" x="8" y="-407.6" font-family="Times,serif" font-size="13.00">Migration version: 20160818210402</text>
<text text-anchor="start" x="8" y="-394.6" font-family="Times,serif" font-size="13.00">Generated by RailRoady 1.5.1</text>
<text text-anchor="start" x="8" y="-381.6" font-family="Times,serif" font-size="13.00">http://railroady.prestonlee.com</text>
</g>
<!-- AccountExecutive -->
<g id="node2" class="node"><title>AccountExecutive</title>
<path fill="none" stroke="black" d="M237.053,-305.5C237.053,-305.5 532.323,-305.5 532.323,-305.5 538.323,-305.5 544.323,-311.5 544.323,-317.5 544.323,-317.5 544.323,-505.5 544.323,-505.5 544.323,-511.5 538.323,-517.5 532.323,-517.5 532.323,-517.5 237.053,-517.5 237.053,-517.5 231.053,-517.5 225.053,-511.5 225.053,-505.5 225.053,-505.5 225.053,-317.5 225.053,-317.5 225.053,-311.5 231.053,-305.5 237.053,-305.5"/>
<text text-anchor="middle" x="384.688" y="-502.3" font-family="Times,serif" font-size="14.00">AccountExecutive</text>
<polyline fill="none" stroke="black" points="225.053,-495.5 544.323,-495.5 "/>
<text text-anchor="start" x="233.053" y="-480.3" font-family="Times,serif" font-size="14.00">updated_at :timestamp without time zone</text>
<text text-anchor="start" x="233.053" y="-466.3" font-family="Times,serif" font-size="14.00">email :character varying</text>
<text text-anchor="start" x="233.053" y="-452.3" font-family="Times,serif" font-size="14.00">encrypted_password :character varying</text>
<text text-anchor="start" x="233.053" y="-438.3" font-family="Times,serif" font-size="14.00">reset_password_token :character varying</text>
<text text-anchor="start" x="233.053" y="-424.3" font-family="Times,serif" font-size="14.00">reset_password_sent_at :timestamp without time zone</text>
<text text-anchor="start" x="233.053" y="-410.3" font-family="Times,serif" font-size="14.00">remember_created_at :timestamp without time zone</text>
<text text-anchor="start" x="233.053" y="-396.3" font-family="Times,serif" font-size="14.00">sign_in_count :integer</text>
<text text-anchor="start" x="233.053" y="-382.3" font-family="Times,serif" font-size="14.00">current_sign_in_at :timestamp without time zone</text>
<text text-anchor="start" x="233.053" y="-368.3" font-family="Times,serif" font-size="14.00">last_sign_in_at :timestamp without time zone</text>
<text text-anchor="start" x="233.053" y="-354.3" font-family="Times,serif" font-size="14.00">current_sign_in_ip :inet</text>
<text text-anchor="start" x="233.053" y="-340.3" font-family="Times,serif" font-size="14.00">last_sign_in_ip :inet</text>
<text text-anchor="start" x="233.053" y="-326.3" font-family="Times,serif" font-size="14.00">created_at :timestamp without time zone</text>
<text text-anchor="start" x="233.053" y="-312.3" font-family="Times,serif" font-size="14.00">id :integer</text>
</g>
<!-- Admin -->
<g id="node3" class="node"><title>Admin</title>
<path fill="none" stroke="black" d="M574.053,-305.5C574.053,-305.5 869.323,-305.5 869.323,-305.5 875.323,-305.5 881.323,-311.5 881.323,-317.5 881.323,-317.5 881.323,-505.5 881.323,-505.5 881.323,-511.5 875.323,-517.5 869.323,-517.5 869.323,-517.5 574.053,-517.5 574.053,-517.5 568.053,-517.5 562.053,-511.5 562.053,-505.5 562.053,-505.5 562.053,-317.5 562.053,-317.5 562.053,-311.5 568.053,-305.5 574.053,-305.5"/>
<text text-anchor="middle" x="721.688" y="-502.3" font-family="Times,serif" font-size="14.00">Admin</text>
<polyline fill="none" stroke="black" points="562.053,-495.5 881.323,-495.5 "/>
<text text-anchor="start" x="570.053" y="-480.3" font-family="Times,serif" font-size="14.00">updated_at :timestamp without time zone</text>
<text text-anchor="start" x="570.053" y="-466.3" font-family="Times,serif" font-size="14.00">email :character varying</text>
<text text-anchor="start" x="570.053" y="-452.3" font-family="Times,serif" font-size="14.00">encrypted_password :character varying</text>
<text text-anchor="start" x="570.053" y="-438.3" font-family="Times,serif" font-size="14.00">reset_password_token :character varying</text>
<text text-anchor="start" x="570.053" y="-424.3" font-family="Times,serif" font-size="14.00">reset_password_sent_at :timestamp without time zone</text>
<text text-anchor="start" x="570.053" y="-410.3" font-family="Times,serif" font-size="14.00">remember_created_at :timestamp without time zone</text>
<text text-anchor="start" x="570.053" y="-396.3" font-family="Times,serif" font-size="14.00">sign_in_count :integer</text>
<text text-anchor="start" x="570.053" y="-382.3" font-family="Times,serif" font-size="14.00">current_sign_in_at :timestamp without time zone</text>
<text text-anchor="start" x="570.053" y="-368.3" font-family="Times,serif" font-size="14.00">last_sign_in_at :timestamp without time zone</text>
<text text-anchor="start" x="570.053" y="-354.3" font-family="Times,serif" font-size="14.00">current_sign_in_ip :inet</text>
<text text-anchor="start" x="570.053" y="-340.3" font-family="Times,serif" font-size="14.00">last_sign_in_ip :inet</text>
<text text-anchor="start" x="570.053" y="-326.3" font-family="Times,serif" font-size="14.00">created_at :timestamp without time zone</text>
<text text-anchor="start" x="570.053" y="-312.3" font-family="Times,serif" font-size="14.00">id :integer</text>
</g>
<!-- ApplicationRecord -->
<g id="node4" class="node"><title>ApplicationRecord</title>
<ellipse fill="none" stroke="black" cx="976.688" cy="-411.5" rx="77.2916" ry="18"/>
<text text-anchor="middle" x="976.688" y="-407.3" font-family="Times,serif" font-size="14.00">ApplicationRecord</text>
</g>
<!-- Client -->
<g id="node5" class="node"><title>Client</title>
<path fill="none" stroke="black" d="M1084.05,-277.5C1084.05,-277.5 1379.32,-277.5 1379.32,-277.5 1385.32,-277.5 1391.32,-283.5 1391.32,-289.5 1391.32,-289.5 1391.32,-533.5 1391.32,-533.5 1391.32,-539.5 1385.32,-545.5 1379.32,-545.5 1379.32,-545.5 1084.05,-545.5 1084.05,-545.5 1078.05,-545.5 1072.05,-539.5 1072.05,-533.5 1072.05,-533.5 1072.05,-289.5 1072.05,-289.5 1072.05,-283.5 1078.05,-277.5 1084.05,-277.5"/>
<text text-anchor="middle" x="1231.69" y="-530.3" font-family="Times,serif" font-size="14.00">Client</text>
<polyline fill="none" stroke="black" points="1072.05,-523.5 1391.32,-523.5 "/>
<text text-anchor="start" x="1080.05" y="-508.3" font-family="Times,serif" font-size="14.00">updated_at :timestamp without time zone</text>
<text text-anchor="start" x="1080.05" y="-494.3" font-family="Times,serif" font-size="14.00">email :character varying</text>
<text text-anchor="start" x="1080.05" y="-480.3" font-family="Times,serif" font-size="14.00">encrypted_password :character varying</text>
<text text-anchor="start" x="1080.05" y="-466.3" font-family="Times,serif" font-size="14.00">reset_password_token :character varying</text>
<text text-anchor="start" x="1080.05" y="-452.3" font-family="Times,serif" font-size="14.00">reset_password_sent_at :timestamp without time zone</text>
<text text-anchor="start" x="1080.05" y="-438.3" font-family="Times,serif" font-size="14.00">remember_created_at :timestamp without time zone</text>
<text text-anchor="start" x="1080.05" y="-424.3" font-family="Times,serif" font-size="14.00">sign_in_count :integer</text>
<text text-anchor="start" x="1080.05" y="-410.3" font-family="Times,serif" font-size="14.00">current_sign_in_at :timestamp without time zone</text>
<text text-anchor="start" x="1080.05" y="-396.3" font-family="Times,serif" font-size="14.00">last_sign_in_at :timestamp without time zone</text>
<text text-anchor="start" x="1080.05" y="-382.3" font-family="Times,serif" font-size="14.00">current_sign_in_ip :inet</text>
<text text-anchor="start" x="1080.05" y="-368.3" font-family="Times,serif" font-size="14.00">last_sign_in_ip :inet</text>
<text text-anchor="start" x="1080.05" y="-354.3" font-family="Times,serif" font-size="14.00">confirmation_token :character varying</text>
<text text-anchor="start" x="1080.05" y="-340.3" font-family="Times,serif" font-size="14.00">confirmed_at :timestamp without time zone</text>
<text text-anchor="start" x="1080.05" y="-326.3" font-family="Times,serif" font-size="14.00">confirmation_sent_at :timestamp without time zone</text>
<text text-anchor="start" x="1080.05" y="-312.3" font-family="Times,serif" font-size="14.00">unconfirmed_email :character varying</text>
<text text-anchor="start" x="1080.05" y="-298.3" font-family="Times,serif" font-size="14.00">created_at :timestamp without time zone</text>
<text text-anchor="start" x="1080.05" y="-284.3" font-family="Times,serif" font-size="14.00">id :integer</text>
</g>
<!-- SocialProfile -->
<g id="node6" class="node"><title>SocialProfile</title>
<path fill="none" stroke="black" d="M1456.83,-0.5C1456.83,-0.5 1680.55,-0.5 1680.55,-0.5 1686.55,-0.5 1692.55,-6.5 1692.55,-12.5 1692.55,-12.5 1692.55,-228.5 1692.55,-228.5 1692.55,-234.5 1686.55,-240.5 1680.55,-240.5 1680.55,-240.5 1456.83,-240.5 1456.83,-240.5 1450.83,-240.5 1444.83,-234.5 1444.83,-228.5 1444.83,-228.5 1444.83,-12.5 1444.83,-12.5 1444.83,-6.5 1450.83,-0.5 1456.83,-0.5"/>
<text text-anchor="middle" x="1568.69" y="-225.3" font-family="Times,serif" font-size="14.00">SocialProfile</text>
<polyline fill="none" stroke="black" points="1444.83,-218.5 1692.55,-218.5 "/>
<text text-anchor="start" x="1452.83" y="-203.3" font-family="Times,serif" font-size="14.00">updated_at :timestamp without time zone</text>
<text text-anchor="start" x="1452.83" y="-189.3" font-family="Times,serif" font-size="14.00">user_id :integer</text>
<text text-anchor="start" x="1452.83" y="-175.3" font-family="Times,serif" font-size="14.00">provider :character varying</text>
<text text-anchor="start" x="1452.83" y="-161.3" font-family="Times,serif" font-size="14.00">uid :character varying</text>
<text text-anchor="start" x="1452.83" y="-147.3" font-family="Times,serif" font-size="14.00">name :character varying</text>
<text text-anchor="start" x="1452.83" y="-133.3" font-family="Times,serif" font-size="14.00">nickname :character varying</text>
<text text-anchor="start" x="1452.83" y="-119.3" font-family="Times,serif" font-size="14.00">email :character varying</text>
<text text-anchor="start" x="1452.83" y="-105.3" font-family="Times,serif" font-size="14.00">url :character varying</text>
<text text-anchor="start" x="1452.83" y="-91.3" font-family="Times,serif" font-size="14.00">image_url :character varying</text>
<text text-anchor="start" x="1452.83" y="-77.3" font-family="Times,serif" font-size="14.00">description :character varying</text>
<text text-anchor="start" x="1452.83" y="-63.3" font-family="Times,serif" font-size="14.00">others :text</text>
<text text-anchor="start" x="1452.83" y="-49.3" font-family="Times,serif" font-size="14.00">credentials :text</text>
<text text-anchor="start" x="1452.83" y="-35.3" font-family="Times,serif" font-size="14.00">raw_info :text</text>
<text text-anchor="start" x="1452.83" y="-21.3" font-family="Times,serif" font-size="14.00">created_at :timestamp without time zone</text>
<text text-anchor="start" x="1452.83" y="-7.3" font-family="Times,serif" font-size="14.00">id :integer</text>
</g>
<!-- SocialProfileParams -->
<g id="node7" class="node"><title>SocialProfileParams</title>
<polygon fill="none" stroke="black" stroke-dasharray="1,5" points="1875.23,-429.5 1746.14,-429.5 1746.14,-393.5 1875.23,-393.5 1875.23,-429.5"/>
<text text-anchor="middle" x="1810.69" y="-407.3" font-family="Times,serif" font-size="14.00">SocialProfileParams</text>
</g>
<!-- User -->
<g id="node8" class="node"><title>User</title>
<path fill="none" stroke="black" d="M1421.05,-277.5C1421.05,-277.5 1716.32,-277.5 1716.32,-277.5 1722.32,-277.5 1728.32,-283.5 1728.32,-289.5 1728.32,-289.5 1728.32,-533.5 1728.32,-533.5 1728.32,-539.5 1722.32,-545.5 1716.32,-545.5 1716.32,-545.5 1421.05,-545.5 1421.05,-545.5 1415.05,-545.5 1409.05,-539.5 1409.05,-533.5 1409.05,-533.5 1409.05,-289.5 1409.05,-289.5 1409.05,-283.5 1415.05,-277.5 1421.05,-277.5"/>
<text text-anchor="middle" x="1568.69" y="-530.3" font-family="Times,serif" font-size="14.00">User</text>
<polyline fill="none" stroke="black" points="1409.05,-523.5 1728.32,-523.5 "/>
<text text-anchor="start" x="1417.05" y="-508.3" font-family="Times,serif" font-size="14.00">updated_at :timestamp without time zone</text>
<text text-anchor="start" x="1417.05" y="-494.3" font-family="Times,serif" font-size="14.00">email :character varying</text>
<text text-anchor="start" x="1417.05" y="-480.3" font-family="Times,serif" font-size="14.00">encrypted_password :character varying</text>
<text text-anchor="start" x="1417.05" y="-466.3" font-family="Times,serif" font-size="14.00">reset_password_token :character varying</text>
<text text-anchor="start" x="1417.05" y="-452.3" font-family="Times,serif" font-size="14.00">reset_password_sent_at :timestamp without time zone</text>
<text text-anchor="start" x="1417.05" y="-438.3" font-family="Times,serif" font-size="14.00">remember_created_at :timestamp without time zone</text>
<text text-anchor="start" x="1417.05" y="-424.3" font-family="Times,serif" font-size="14.00">sign_in_count :integer</text>
<text text-anchor="start" x="1417.05" y="-410.3" font-family="Times,serif" font-size="14.00">current_sign_in_at :timestamp without time zone</text>
<text text-anchor="start" x="1417.05" y="-396.3" font-family="Times,serif" font-size="14.00">last_sign_in_at :timestamp without time zone</text>
<text text-anchor="start" x="1417.05" y="-382.3" font-family="Times,serif" font-size="14.00">current_sign_in_ip :inet</text>
<text text-anchor="start" x="1417.05" y="-368.3" font-family="Times,serif" font-size="14.00">last_sign_in_ip :inet</text>
<text text-anchor="start" x="1417.05" y="-354.3" font-family="Times,serif" font-size="14.00">confirmation_token :character varying</text>
<text text-anchor="start" x="1417.05" y="-340.3" font-family="Times,serif" font-size="14.00">confirmed_at :timestamp without time zone</text>
<text text-anchor="start" x="1417.05" y="-326.3" font-family="Times,serif" font-size="14.00">confirmation_sent_at :timestamp without time zone</text>
<text text-anchor="start" x="1417.05" y="-312.3" font-family="Times,serif" font-size="14.00">unconfirmed_email :character varying</text>
<text text-anchor="start" x="1417.05" y="-298.3" font-family="Times,serif" font-size="14.00">created_at :timestamp without time zone</text>
<text text-anchor="start" x="1417.05" y="-284.3" font-family="Times,serif" font-size="14.00">id :integer</text>
</g>
<!-- User&#45;&gt;SocialProfile -->
<g id="edge1" class="edge"><title>User&#45;&gt;SocialProfile</title>
<path fill="none" stroke="#25b53d" d="M1568.69,-269.338C1568.69,-263.169 1568.69,-256.991 1568.69,-250.85"/>
<ellipse fill="none" stroke="#25b53d" cx="1568.69" cy="-273.42" rx="4" ry="4"/>
<polygon fill="#25b53d" stroke="#25b53d" points="1568.69,-250.559 1573.19,-240.558 1568.69,-245.559 1568.69,-240.559 1568.69,-240.559 1568.69,-240.559 1568.69,-245.559 1564.19,-240.559 1568.69,-250.559 1568.69,-250.559"/>
</g>
</g>
</svg>
