<?xml version="1.0" encoding="UTF-8" standalone="no"?>
<!DOCTYPE svg PUBLIC "-//W3C//DTD SVG 1.1//EN"
 "http://www.w3.org/Graphics/SVG/1.1/DTD/svg11.dtd">
<!-- Generated by graphviz version 2.38.0 (20140413.2041)
 -->
<!-- Title: models_diagram Pages: 1 -->
<svg width="945pt" height="153pt"
 viewBox="0.00 0.00 945.46 153.00" xmlns="http://www.w3.org/2000/svg" xmlns:xlink="http://www.w3.org/1999/xlink">
<g id="graph0" class="graph" transform="scale(1 1) rotate(0) translate(4 149)">
<title>models_diagram</title>
<polygon fill="none" stroke="none" points="-4,4 -4,-149 941.46,-149 941.46,4 -4,4"/>
<!-- _diagram_info -->
<g id="node1" class="node"><title>_diagram_info</title>
<text text-anchor="start" x="8" y="-130.6" font-family="Times,serif" font-size="13.00">Models diagram</text>
<text text-anchor="start" x="8" y="-117.6" font-family="Times,serif" font-size="13.00">Date: Sep 04 2016 &#45; 18:42</text>
<text text-anchor="start" x="8" y="-104.6" font-family="Times,serif" font-size="13.00">Migration version: 20160818210402</text>
<text text-anchor="start" x="8" y="-91.6" font-family="Times,serif" font-size="13.00">Generated by RailRoady 1.5.1</text>
<text text-anchor="start" x="8" y="-78.6" font-family="Times,serif" font-size="13.00">http://railroady.prestonlee.com</text>
</g>
<!-- AccountExecutive -->
<g id="node2" class="node"><title>AccountExecutive</title>
<ellipse fill="none" stroke="black" cx="300.688" cy="-108.5" rx="75.3448" ry="18"/>
<text text-anchor="middle" x="300.688" y="-104.3" font-family="Times,serif" font-size="14.00">AccountExecutive</text>
</g>
<!-- Admin -->
<g id="node3" class="node"><title>Admin</title>
<ellipse fill="none" stroke="black" cx="428.688" cy="-108.5" rx="34.8458" ry="18"/>
<text text-anchor="middle" x="428.688" y="-104.3" font-family="Times,serif" font-size="14.00">Admin</text>
</g>
<!-- ApplicationRecord -->
<g id="node4" class="node"><title>ApplicationRecord</title>
<ellipse fill="none" stroke="black" cx="558.688" cy="-108.5" rx="77.2916" ry="18"/>
<text text-anchor="middle" x="558.688" y="-104.3" font-family="Times,serif" font-size="14.00">ApplicationRecord</text>
</g>
<!-- Client -->
<g id="node5" class="node"><title>Client</title>
<ellipse fill="none" stroke="black" cx="685.688" cy="-108.5" rx="31.948" ry="18"/>
<text text-anchor="middle" x="685.688" y="-104.3" font-family="Times,serif" font-size="14.00">Client</text>
</g>
<!-- SocialProfile -->
<g id="node6" class="node"><title>SocialProfile</title>
<ellipse fill="none" stroke="black" cx="762.688" cy="-18" rx="55.594" ry="18"/>
<text text-anchor="middle" x="762.688" y="-13.8" font-family="Times,serif" font-size="14.00">SocialProfile</text>
</g>
<!-- SocialProfileParams -->
<g id="node7" class="node"><title>SocialProfileParams</title>
<polygon fill="none" stroke="black" stroke-dasharray="1,5" points="937.233,-126.5 808.142,-126.5 808.142,-90.5 937.233,-90.5 937.233,-126.5"/>
<text text-anchor="middle" x="872.688" y="-104.3" font-family="Times,serif" font-size="14.00">SocialProfileParams</text>
</g>
<!-- User -->
<g id="node8" class="node"><title>User</title>
<ellipse fill="none" stroke="black" cx="762.688" cy="-108.5" rx="27" ry="18"/>
<text text-anchor="middle" x="762.688" y="-104.3" font-family="Times,serif" font-size="14.00">User</text>
</g>
<!-- User&#45;&gt;SocialProfile -->
<g id="edge1" class="edge"><title>User&#45;&gt;SocialProfile</title>
<path fill="none" stroke="#ddd6f9" d="M762.688,-82.189C762.688,-70.9711 762.688,-57.7517 762.688,-46.3113"/>
<ellipse fill="none" stroke="#ddd6f9" cx="762.688" cy="-86.4363" rx="4" ry="4"/>
<polygon fill="#ddd6f9" stroke="#ddd6f9" points="762.688,-46.0113 767.188,-36.0113 762.688,-41.0113 762.688,-36.0113 762.688,-36.0113 762.688,-36.0113 762.688,-41.0113 758.188,-36.0113 762.688,-46.0113 762.688,-46.0113"/>
</g>
</g>
</svg>
